<?xml version="1.0" encoding="utf-8"?>
<!-- Generator: Adobe Illustrator 21.1.0, SVG Export Plug-In . SVG Version: 6.00 Build 0)  -->
<svg version="1.1" id="Layer_1" xmlns="http://www.w3.org/2000/svg" xmlns:xlink="http://www.w3.org/1999/xlink" x="0px" y="0px"
	 viewBox="0 0 48 48" style="enable-background:new 0 0 48 48;" xml:space="preserve">
<style type="text/css">
	.st0{fill:#FFFFFF;}
</style>
<g id="Padding__x26__Artboard">
</g>
<g id="Icons">
	<g>
		<path class="st0" d="M24,23.6c2.9,0,5.2-2.3,5.2-5.2s-2.3-5.2-5.2-5.2s-5.2,2.3-5.2,5.2S21.1,23.6,24,23.6z M20.6,17.8
			c0.1-0.3,0.1-0.5,0.2-0.7c0.1-0.2,0.3-0.3,0.5-0.2c0.2,0.1,0.3,0.3,0.2,0.5c-0.1,0.2-0.2,0.4-0.2,0.6c0,0.2-0.2,0.3-0.3,0.3
			c0,0,0,0-0.1,0C20.7,18.2,20.6,18,20.6,17.8z M24.4,15.4c0,0.2-0.2,0.4-0.4,0.4c-0.7,0-1.3,0.3-1.9,0.7c-0.1,0.1-0.2,0.1-0.2,0.1
			c-0.1,0-0.2,0-0.3-0.1c-0.1-0.1-0.1-0.4,0-0.5c0.6-0.6,1.5-0.9,2.3-0.9C24.2,15.1,24.4,15.2,24.4,15.4z"/>
		<path class="st0" d="M24,23.9c-5.8,0-10.4,4.7-10.4,10.4c0,0.2,0.2,0.3,0.4,0.3h20.2c0.2,0,0.4-0.2,0.4-0.3
			C34.4,28.6,29.8,23.9,24,23.9z"/>
	</g>
</g>
</svg>
