<?xml version="1.0" encoding="utf-8"?>
<!-- Generator: Adobe Illustrator 21.1.0, SVG Export Plug-In . SVG Version: 6.00 Build 0)  -->
<svg version="1.1" id="Layer_1" xmlns="http://www.w3.org/2000/svg" xmlns:xlink="http://www.w3.org/1999/xlink" x="0px" y="0px"
	 viewBox="0 0 48 48" style="enable-background:new 0 0 48 48;" xml:space="preserve">
<style type="text/css">
	.st0{fill:#FFFFFF;}
</style>
<g id="Padding__x26__Artboard">
</g>
<g id="Icons">
	<g>
		<path class="st0" d="M24,23.2c5.8,0,10.6-4.7,10.6-10.6S29.8,2.1,24,2.1S13.4,6.8,13.4,12.7S18.2,23.2,24,23.2z M17.1,11.4
			c0.1-0.5,0.3-1,0.5-1.5c0.2-0.4,0.6-0.5,0.9-0.4c0.4,0.2,0.5,0.6,0.4,0.9c-0.2,0.4-0.3,0.8-0.4,1.2c-0.1,0.3-0.4,0.6-0.7,0.6
			c0,0-0.1,0-0.1,0C17.2,12.2,17,11.8,17.1,11.4z M24.7,6.5c0,0.4-0.3,0.7-0.7,0.7c-1.4,0-2.8,0.5-3.8,1.5c-0.1,0.1-0.3,0.2-0.5,0.2
			c-0.2,0-0.4-0.1-0.5-0.2c-0.3-0.3-0.2-0.7,0.1-1c1.3-1.2,3-1.8,4.8-1.8C24.4,5.7,24.7,6.1,24.7,6.5z"/>
		<path class="st0" d="M24,23.9c-11.8,0-21.3,9.6-21.3,21.3c0,0.4,0.3,0.7,0.7,0.7h41.2c0.4,0,0.7-0.3,0.7-0.7
			C45.3,33.4,35.8,23.9,24,23.9z"/>
	</g>
</g>
</svg>
