<?xml version="1.0" encoding="utf-8"?>
<!-- Generator: Adobe Illustrator 21.1.0, SVG Export Plug-In . SVG Version: 6.00 Build 0)  -->
<svg version="1.1" id="Layer_1" xmlns="http://www.w3.org/2000/svg" xmlns:xlink="http://www.w3.org/1999/xlink" x="0px" y="0px"
	 viewBox="0 0 30 30" style="enable-background:new 0 0 30 30;" xml:space="preserve">
<style type="text/css">
	.st0{fill:none;stroke:#FFFFFF;stroke-width:2;stroke-linecap:round;stroke-linejoin:round;stroke-miterlimit:10;}
	.st1{fill:#FFFFFF;}
</style>
<path class="st0" d="M24,26H8c-1.1,0-2-0.9-2-2l0,0c0-1.1,0.9-2,2-2"/>
<path class="st1" d="M23,3H8C6.3,3,5,4.3,5,6v18l2-1h16c1.1,0,2-0.9,2-2V5C25,3.9,24.1,3,23,3z M19,11h-7c-0.6,0-1-0.4-1-1
	s0.4-1,1-1h7c0.6,0,1,0.4,1,1S19.6,11,19,11z"/>
</svg>
