<?xml version="1.0" encoding="UTF-8" standalone="no"?>
<!DOCTYPE svg PUBLIC "-//W3C//DTD SVG 1.1//EN" "http://www.w3.org/Graphics/SVG/1.1/DTD/svg11.dtd">
<svg version="1.1" xmlns="http://www.w3.org/2000/svg" xmlns:xlink="http://www.w3.org/1999/xlink" preserveAspectRatio="xMidYMid meet" viewBox="0 0 640 640" width="640" height="640"><defs><path d="M462.02 101.87L462.02 120.13L389.18 120.13L389.18 98.75L424.54 98.75L389.18 60.37L389.18 42.08L460.66 42.08L460.66 63.49L426.66 63.49L426.66 63.49L462.02 101.87Z" id="bREtntxiz"></path><path d="M139.6 155.77L549.31 155.77L511.99 573.91L344.2 620.42L176.89 573.97L139.6 155.77Z" id="b1CvuEQi2E"></path><path d="M480.03 547.28L511.93 189.96L344.46 189.96L344.46 584.87L480.03 547.28Z" id="b2GST4OZIZ"></path><path d="M412.33 341.48L417.02 288.95L344.46 288.95L344.46 237.66L344.63 237.66L473.07 237.66L471.84 251.42L459.24 392.77L344.46 392.77L344.46 341.48L412.33 341.48Z" id="b4huXVSx5F"></path><path d="M344.54 474.75L287.42 459.32L283.76 418.41L256.01 418.41L232.28 418.41L239.46 498.95L344.53 528.11L344.76 528.05L344.76 474.68L344.54 474.75Z" id="b3A0kCBOfU"></path><path d="M401.79 459.29L344.59 474.73L344.59 528.09L449.74 498.95L450.51 490.28L459.43 390.59L407.97 390.59L401.79 459.29Z" id="d1DPa4s37u"></path><path d="M344.63 269.52L344.63 288.83L344.63 288.95L220.9 288.95L220.9 288.95L220.74 288.95L219.71 277.42L217.37 251.42L216.15 237.66L344.63 237.66L344.63 269.52Z" id="dS60gcEow"></path><path d="M344.46 373.34L344.46 392.65L344.46 392.77L288.22 392.77L288.22 392.77L288.06 392.77L287.03 381.25L284.69 355.24L283.46 341.48L344.46 341.48L344.46 373.34Z" id="a3095Z3FP1"></path><path d="M278.88 62.33L241.89 62.33L241.89 92.86L278.88 92.86L278.88 120.07L216.15 120.07L216.15 42.08L278.88 42.08L278.88 62.33Z" id="a4FxiFw2BY"></path><path d="M375.34 101.8L375.34 120.07L302.5 120.07L302.5 98.68L337.85 98.68L302.5 60.31L302.5 42.01L373.98 42.01L373.98 63.43L339.97 63.43L339.97 63.43L375.34 101.8Z" id="b1M1AosMkg"></path></defs><g><g><g><use xlink:href="#bREtntxiz" opacity="1" fill="#131313" fill-opacity="1"></use><g><use xlink:href="#bREtntxiz" opacity="1" fill-opacity="0" stroke="#000000" stroke-width="1" stroke-opacity="0"></use></g></g><g><use xlink:href="#b1CvuEQi2E" opacity="1" fill="#1572b6" fill-opacity="1"></use><g><use xlink:href="#b1CvuEQi2E" opacity="1" fill-opacity="0" stroke="#000000" stroke-width="1" stroke-opacity="0"></use></g></g><g><use xlink:href="#b2GST4OZIZ" opacity="1" fill="#33a9dc" fill-opacity="1"></use><g><use xlink:href="#b2GST4OZIZ" opacity="1" fill-opacity="0" stroke="#000000" stroke-width="1" stroke-opacity="0"></use></g></g><g><use xlink:href="#b4huXVSx5F" opacity="1" fill="#ffffff" fill-opacity="1"></use><g><use xlink:href="#b4huXVSx5F" opacity="1" fill-opacity="0" stroke="#000000" stroke-width="1" stroke-opacity="0"></use></g></g><g><use xlink:href="#b3A0kCBOfU" opacity="1" fill="#ebebeb" fill-opacity="1"></use><g><use xlink:href="#b3A0kCBOfU" opacity="1" fill-opacity="0" stroke="#000000" stroke-width="1" stroke-opacity="0"></use></g></g><g><use xlink:href="#d1DPa4s37u" opacity="1" fill="#ffffff" fill-opacity="1"></use><g><use xlink:href="#d1DPa4s37u" opacity="1" fill-opacity="0" stroke="#000000" stroke-width="1" stroke-opacity="0"></use></g></g><g><use xlink:href="#dS60gcEow" opacity="1" fill="#ebebeb" fill-opacity="1"></use><g><use xlink:href="#dS60gcEow" opacity="1" fill-opacity="0" stroke="#000000" stroke-width="1" stroke-opacity="0"></use></g></g><g><use xlink:href="#a3095Z3FP1" opacity="1" fill="#ebebeb" fill-opacity="1"></use><g><use xlink:href="#a3095Z3FP1" opacity="1" fill-opacity="0" stroke="#000000" stroke-width="1" stroke-opacity="0"></use></g></g><g><use xlink:href="#a4FxiFw2BY" opacity="1" fill="#000000" fill-opacity="1"></use><g><use xlink:href="#a4FxiFw2BY" opacity="1" fill-opacity="0" stroke="#000000" stroke-width="1" stroke-opacity="1"></use></g></g><g><use xlink:href="#b1M1AosMkg" opacity="1" fill="#131313" fill-opacity="1"></use><g><use xlink:href="#b1M1AosMkg" opacity="1" fill-opacity="0" stroke="#000000" stroke-width="1" stroke-opacity="0"></use></g></g></g></g></svg>