<?xml version="1.0" encoding="UTF-8" standalone="no"?>
<!DOCTYPE svg PUBLIC "-//W3C//DTD SVG 1.1//EN" "http://www.w3.org/Graphics/SVG/1.1/DTD/svg11.dtd">
<svg version="1.1" xmlns="http://www.w3.org/2000/svg" xmlns:xlink="http://www.w3.org/1999/xlink" preserveAspectRatio="xMidYMid meet" viewBox="0 0 640 640" width="640" height="640"><defs><path d="M125.74 149.95L527.48 149.95L490.88 559.95L326.36 605.56L162.3 560.02L125.74 149.95Z" id="d20i3LST"></path><path d="M459.54 533.84L490.82 183.47L326.61 183.47L326.61 570.7L459.54 533.84Z" id="a1ShTPl62P"></path><path d="M260.06 335.56L255.46 284.06L326.61 284.06L326.61 233.77L326.44 233.77L200.5 233.77L201.7 247.26L214.06 385.86L326.61 385.86L326.61 335.56L260.06 335.56Z" id="j4TupS5gP"></path><path d="M326.39 466.24L270.38 451.12L266.8 411L239.58 411L216.31 411L223.36 489.97L326.38 518.57L326.61 518.51L326.61 466.18L326.39 466.24Z" id="a6wbcrZ1a"></path><path d="M188.68 38.51L188.68 63.76L212.06 63.76L212.06 38.51L237.62 38.51L237.62 114.98L212.06 114.98L212.06 89.37L188.68 89.37L188.68 114.98L163.12 114.98L163.12 38.51L163.12 38.51L188.68 38.51Z" id="j217sfrHzm"></path><path d="M248.73 63.86L248.73 38.51L319.3 38.51L319.3 63.86L296.79 63.86L296.79 114.98L271.23 114.98L271.23 63.86L271.23 63.86L248.73 63.86Z" id="a7KJDUWZl"></path><path d="M357.15 38.51L373.54 65.38L389.92 38.51L416.58 38.51L416.58 114.98L391.13 114.98L391.13 77.07L373.54 104.26L373.1 104.26L355.51 77.07L355.51 114.98L330.5 114.98L330.5 38.51L357.15 38.51Z" id="a5TjSMR3jo"></path><path d="M326.44 385.86L388.37 385.86L382.53 451.08L326.44 466.22L326.44 518.55L429.54 489.97L430.29 481.48L442.11 349.07L443.34 335.56L429.79 335.56L326.44 335.56L326.44 385.86Z" id="asaPs20Vb"></path><path d="M326.44 265.01L326.44 283.94L326.44 284.06L447.76 284.06L447.76 284.06L447.92 284.06L448.93 272.76L451.22 247.26L452.42 233.77L326.44 233.77L326.44 265.01Z" id="a20ilbRc3"></path><path d="M454.87 38.51L454.87 89.7L490.81 89.7L490.81 114.97L429.3 114.97L429.3 38.51L454.87 38.51Z" id="b52oD7N61"></path></defs><g><g><g><use xlink:href="#d20i3LST" opacity="1" fill="#e44f26" fill-opacity="1"></use><g><use xlink:href="#d20i3LST" opacity="1" fill-opacity="0" stroke="#000000" stroke-width="1" stroke-opacity="0"></use></g></g><g><use xlink:href="#a1ShTPl62P" opacity="1" fill="#f1662a" fill-opacity="1"></use><g><use xlink:href="#a1ShTPl62P" opacity="1" fill-opacity="0" stroke="#000000" stroke-width="1" stroke-opacity="0"></use></g></g><g><use xlink:href="#j4TupS5gP" opacity="1" fill="#ebebeb" fill-opacity="1"></use><g><use xlink:href="#j4TupS5gP" opacity="1" fill-opacity="0" stroke="#000000" stroke-width="1" stroke-opacity="0"></use></g></g><g><use xlink:href="#a6wbcrZ1a" opacity="1" fill="#ebebeb" fill-opacity="1"></use><g><use xlink:href="#a6wbcrZ1a" opacity="1" fill-opacity="0" stroke="#000000" stroke-width="1" stroke-opacity="0"></use></g></g><g><use xlink:href="#j217sfrHzm" opacity="1" fill="#010101" fill-opacity="1"></use><g><use xlink:href="#j217sfrHzm" opacity="1" fill-opacity="0" stroke="#000000" stroke-width="1" stroke-opacity="0"></use></g></g><g><use xlink:href="#a7KJDUWZl" opacity="1" fill="#010101" fill-opacity="1"></use><g><use xlink:href="#a7KJDUWZl" opacity="1" fill-opacity="0" stroke="#000000" stroke-width="1" stroke-opacity="0"></use></g></g><g><use xlink:href="#a5TjSMR3jo" opacity="1" fill="#010101" fill-opacity="1"></use><g><use xlink:href="#a5TjSMR3jo" opacity="1" fill-opacity="0" stroke="#000000" stroke-width="1" stroke-opacity="0"></use></g></g><g><use xlink:href="#asaPs20Vb" opacity="1" fill="#ffffff" fill-opacity="1"></use><g><use xlink:href="#asaPs20Vb" opacity="1" fill-opacity="0" stroke="#000000" stroke-width="1" stroke-opacity="0"></use></g></g><g><use xlink:href="#a20ilbRc3" opacity="1" fill="#ffffff" fill-opacity="1"></use><g><use xlink:href="#a20ilbRc3" opacity="1" fill-opacity="0" stroke="#000000" stroke-width="1" stroke-opacity="0"></use></g></g><g><use xlink:href="#b52oD7N61" opacity="1" fill="#010101" fill-opacity="1"></use><g><use xlink:href="#b52oD7N61" opacity="1" fill-opacity="0" stroke="#000000" stroke-width="1" stroke-opacity="0"></use></g></g></g></g></svg>